<?xml version="1.0" encoding="utf-8"?>
<!-- Generator: Adobe Illustrator 16.0.4, SVG Export Plug-In . SVG Version: 6.00 Build 0)  -->
<!DOCTYPE svg PUBLIC "-//W3C//DTD SVG 1.1//EN" "http://www.w3.org/Graphics/SVG/1.1/DTD/svg11.dtd">
<svg version="1.1" id="Layer_1" xmlns="http://www.w3.org/2000/svg" xmlns:xlink="http://www.w3.org/1999/xlink" x="0px" y="0px"
	 width="82px" height="82px" viewBox="0 0 82 82" enable-background="new 0 0 82 82" xml:space="preserve">
<g>
	<circle fill="none" stroke="#eaeaea" stroke-miterlimit="10" cx="41" cy="40.999" r="40"/>
	<g>
		<g>
			<path fill="#eaeaea" d="M49,25.007L44.851,25c-4.665,0-7.677,3.091-7.677,7.875v3.631H33c-0.358,0-0.653,0.292-0.653,0.652v5.262
				c0,0.359,0.295,0.652,0.653,0.652h4.174v13.275c0,0.36,0.292,0.652,0.651,0.652h5.446c0.358,0,0.65-0.293,0.65-0.652V43.073
				h4.879c0.362,0,0.653-0.293,0.653-0.652l0.002-5.262c0-0.173-0.068-0.338-0.191-0.462c-0.122-0.121-0.287-0.19-0.462-0.19h-4.881
				v-3.078c0-1.479,0.354-2.23,2.278-2.23l2.8-0.001c0.359,0,0.652-0.293,0.652-0.654V25.66C49.652,25.299,49.359,25.007,49,25.007z
				"/>
		</g>
	</g>
</g>
</svg>
