<?xml version="1.0" encoding="utf-8"?>
<!-- Generator: Adobe Illustrator 16.0.4, SVG Export Plug-In . SVG Version: 6.00 Build 0)  -->
<!DOCTYPE svg PUBLIC "-//W3C//DTD SVG 1.1//EN" "http://www.w3.org/Graphics/SVG/1.1/DTD/svg11.dtd">
<svg version="1.1" id="Layer_1" xmlns="http://www.w3.org/2000/svg" xmlns:xlink="http://www.w3.org/1999/xlink" x="0px" y="0px"
	 width="82px" height="82px" viewBox="0 0 82 82" enable-background="new 0 0 82 82" xml:space="preserve">
<g>
	<circle fill="none" stroke="#eaeaea" stroke-miterlimit="10" cx="41" cy="41" r="40"/>
	<g>
		<g>
			<g id="post-instagram_8_">
				<path fill="#eaeaea" d="M53.799,25.001h-25.6C26.44,25.001,25,26.44,25,28.2v25.602c0,1.76,1.44,3.199,3.199,3.199h25.6
					c1.762,0,3.199-1.439,3.199-3.199V28.2C56.998,26.44,55.561,25.001,53.799,25.001z M41,34.601c3.52,0,6.398,2.879,6.398,6.399
					c0,3.521-2.879,6.399-6.398,6.399c-3.519,0-6.4-2.879-6.4-6.399C34.6,37.48,37.48,34.601,41,34.601z M29,53.802
					c-0.481,0-0.801-0.32-0.801-0.801v-13.6h3.36c-0.158,0.48-0.158,1.12-0.158,1.6c0,5.279,4.319,9.6,9.599,9.6
					c5.277,0,9.598-4.32,9.598-9.6c0-0.479,0-1.12-0.158-1.6h3.359v13.6c0,0.48-0.318,0.801-0.801,0.801H29z M53.799,32.2
					c0,0.481-0.318,0.8-0.801,0.8h-3.199C49.32,33,49,32.681,49,32.2V29c0-0.48,0.32-0.8,0.799-0.8h3.199
					c0.482,0,0.801,0.32,0.801,0.8V32.2z"/>
			</g>
		</g>
	</g>
</g>
</svg>
