<?xml version="1.0" encoding="utf-8"?>
<!-- Generator: Adobe Illustrator 16.0.4, SVG Export Plug-In . SVG Version: 6.00 Build 0)  -->
<!DOCTYPE svg PUBLIC "-//W3C//DTD SVG 1.1//EN" "http://www.w3.org/Graphics/SVG/1.1/DTD/svg11.dtd">
<svg version="1.1" id="Layer_1" xmlns="http://www.w3.org/2000/svg" xmlns:xlink="http://www.w3.org/1999/xlink" x="0px" y="0px"
	 width="82px" height="82px" viewBox="0 0 82 82" enable-background="new 0 0 82 82" xml:space="preserve">
<g>
	<circle fill="none" stroke="#eaeaea" stroke-miterlimit="10" cx="41" cy="41" r="40"/>
	<g>
		<g>
			<g>
				<path fill="#eaeaea" d="M56.447,41.238c-0.391-1.702-1.784-2.957-3.459-3.144c-3.969-0.443-7.984-0.445-11.982-0.443
					c-4-0.002-8.014,0-11.983,0.443c-1.675,0.188-3.065,1.443-3.456,3.144c-0.559,2.425-0.564,5.071-0.564,7.563
					c0,2.496,0,5.145,0.558,7.565c0.39,1.7,1.78,2.954,3.457,3.144C32.986,59.955,37,59.956,41,59.955
					c3.999,0.001,8.014,0,11.982-0.444c1.674-0.188,3.065-1.44,3.457-3.144C56.998,53.943,57,51.298,57,48.802
					C57,46.309,57.004,43.663,56.447,41.238z M34.13,43.117h-2.317v12.306h-2.152V43.117h-2.273v-2.016h6.743L34.13,43.117
					L34.13,43.117z M39.973,55.423h-1.937v-1.162c-0.769,0.882-1.499,1.312-2.209,1.312c-0.624,0-1.054-0.252-1.246-0.793
					c-0.106-0.321-0.173-0.834-0.173-1.586v-8.44h1.936v7.858c0,0.451,0,0.688,0.017,0.752c0.046,0.3,0.194,0.451,0.453,0.451
					c0.387,0,0.793-0.297,1.223-0.905v-8.157h1.934L39.973,55.423L39.973,55.423z M47.318,52.223c0,0.985-0.068,1.697-0.195,2.149
					c-0.258,0.793-0.775,1.198-1.547,1.198c-0.689,0-1.35-0.381-1.997-1.182v1.034h-1.935V41.102h1.935v4.677
					c0.624-0.771,1.288-1.158,1.997-1.158c0.771,0,1.289,0.404,1.547,1.205c0.13,0.429,0.195,1.135,0.195,2.146V52.223z
					 M54.617,50.439h-3.868v1.894c0,0.985,0.323,1.479,0.989,1.479c0.475,0,0.752-0.258,0.861-0.774
					c0.017-0.104,0.043-0.535,0.043-1.312h1.975v0.282c0,0.623-0.024,1.052-0.043,1.246c-0.062,0.427-0.217,0.813-0.451,1.157
					c-0.535,0.775-1.33,1.156-2.34,1.156s-1.781-0.362-2.34-1.092c-0.409-0.535-0.619-1.375-0.619-2.513V48.23
					c0-1.144,0.184-1.979,0.596-2.518c0.561-0.729,1.329-1.094,2.318-1.094c0.969,0,1.738,0.361,2.279,1.094
					c0.402,0.539,0.6,1.374,0.6,2.518V50.439L54.617,50.439z"/>
				<path fill="#eaeaea" d="M51.719,46.361c-0.645,0-0.97,0.494-0.97,1.479v0.988h1.935v-0.988
					C52.684,46.855,52.359,46.361,51.719,46.361z"/>
				<path fill="#eaeaea" d="M44.544,46.361c-0.319,0-0.644,0.149-0.965,0.472v6.504c0.321,0.324,0.646,0.478,0.965,0.478
					c0.558,0,0.843-0.478,0.843-1.438V47.82C45.387,46.855,45.102,46.361,44.544,46.361z"/>
				<path fill="#eaeaea" d="M45.623,36.668c0.713,0,1.455-0.433,2.232-1.324v1.176h1.955V25.735h-1.955v8.243
					c-0.436,0.612-0.844,0.915-1.234,0.915c-0.262,0-0.416-0.155-0.458-0.459c-0.024-0.063-0.024-0.302-0.024-0.758v-7.941h-1.949
					v8.528c0,0.761,0.066,1.277,0.178,1.604C44.561,36.413,44.994,36.668,45.623,36.668z"/>
				<path fill="#eaeaea" d="M32.018,30.658v5.862h2.167v-5.862l2.608-8.611h-2.191l-1.48,5.685l-1.538-5.685h-2.28
					c0.457,1.342,0.934,2.69,1.389,4.033C31.386,28.098,31.822,29.619,32.018,30.658z"/>
				<path fill="#eaeaea" d="M39.697,36.668c0.979,0,1.738-0.369,2.28-1.104c0.41-0.54,0.605-1.39,0.605-2.536v-3.777
					c0-1.153-0.195-1.996-0.605-2.541c-0.542-0.737-1.302-1.107-2.28-1.107c-0.976,0-1.736,0.37-2.275,1.107
					c-0.416,0.545-0.61,1.388-0.61,2.541v3.776c0,1.146,0.194,1.997,0.61,2.536C37.961,36.299,38.722,36.668,39.697,36.668z
					 M38.765,28.859c0-0.998,0.302-1.495,0.933-1.495c0.631,0,0.933,0.496,0.933,1.495v4.537c0,0.997-0.302,1.497-0.933,1.497
					c-0.631,0-0.933-0.5-0.933-1.497V28.859z"/>
			</g>
		</g>
	</g>
</g>
</svg>
